<?xml version="1.0" standalone="no"?><!DOCTYPE svg PUBLIC "-//W3C//DTD SVG 1.1//EN" "http://www.w3.org/Graphics/SVG/1.1/DTD/svg11.dtd"><svg t="1749004861810" class="icon" viewBox="0 0 1024 1024" version="1.1" xmlns="http://www.w3.org/2000/svg" p-id="32456" xmlns:xlink="http://www.w3.org/1999/xlink" width="200" height="200"><path d="M512.00032 0a102.4 102.4 0 0 0-102.4 102.4v358.4c0 56.48 45.824 102.304 102.4 102.304s102.4-45.824 102.4-102.304V222.304c119.264 42.24 204.768 155.904 204.768 289.664 0 169.6-137.6 307.168-307.168 307.168s-307.168-137.504-307.168-307.104a305.984 305.984 0 0 1 89.952-217.216c40.032-40.032 40.032-104.864 0-144.896s-104.864-40.032-144.896 0A511.04 511.04 0 0 0 0.00032 512.032c0 282.752 229.248 512 512 512s512-229.248 512-512-229.248-512-512-512z" fill="#1E8CBE" p-id="32457"></path></svg>